<?xml version="1.0" encoding="utf-8"?>
<!-- Generator: Adobe Illustrator 18.1.1, SVG Export Plug-In . SVG Version: 6.00 Build 0)  -->
<svg version="1.2" baseProfile="tiny" id="Ebene_1" xmlns="http://www.w3.org/2000/svg" xmlns:xlink="http://www.w3.org/1999/xlink"
     x="0px" y="0px" viewBox="0 0 264 60" xml:space="preserve">
<path fill="#E60000" d="M66,33.2C66,14.9,51.1,0,32.7,0C17.5,0,4,10.2,0,24.1h17.7c3.6-8.4,11.9-14.4,21.7-14.4
	c13,0,23.5,10.5,23.5,23.5S52.3,56.8,39.3,56.8c-9.8,0-18.2-6-21.7-14.6h-3.8C17.6,52.5,27.6,60,39.2,60C54,60,66,48,66,33.2
	L66,33.2L66,33.2z"/>
    <polygon points="19.7,40.7 19.7,25.5 24.7,25.5 27.8,34.3 30.9,25.5 36,25.5 36,40.7 32.2,40.7 32.2,31.1 28.8,40.7 26.8,40.7
	23.5,31.1 23.5,40.7 "/>
    <polygon points="13.9,25.5 13.9,35.2 4.9,25.5 0,25.5 13.9,40.7 17.7,40.7 17.7,25.5 "/>
    <path d="M41.8,31.1l3.8,4.2h-3.8V31.1z M55.7,40.7L41.8,25.5H38v15.2h3.8v-1.7H49l1.5,1.7H55.7z"/>
    <g>
	<path fill="#E60000" d="M89.3,24.4l3.3-8.9H94l-4.7,12.4l-4.7-12.4H86L89.3,24.4z"/>
        <path fill="#E60000" d="M96.3,14.8l4.5,9.9l4.6-9.9l1.8,12.3h-1.3l-1.1-8.1l-4,8.6L96.9,19l-1.2,8.1h-1.3L96.3,14.8z"/>
        <path fill="#E60000" d="M111.2,23.8l-1.4,3.3h-1.4l5.4-12.2l5.3,12.2h-1.4l-1.4-3.3H111.2z M113.8,18l-2,4.7h3.9L113.8,18z"/>
        <path d="M122.7,22.9V24h-3.2v-1.1H122.7z"/>
        <path d="M135.7,21.3v0.3c0,1.3-0.2,2.3-0.7,3.1c-1,1.6-2.9,2.7-4.8,2.7c-3.3,0-6-2.7-6-6c0-3.4,2.7-6.1,6.1-6.1
		c1.3,0,2.6,0.4,3.6,1.2c0.5,0.3,0.8,0.7,1.3,1.3l-1,0.9c-1.2-1.5-2.3-2.2-3.9-2.2c-2.7,0-4.8,2.2-4.8,4.8c0,2.6,2.2,4.8,4.7,4.8
		c1.5,0,2.9-0.8,3.6-2c0.3-0.5,0.4-0.9,0.5-1.6h-3.5v-1.2H135.7z"/>
        <path d="M139.1,16.7v3.5h4.6v1.2h-4.6v4.6h4.7v1.2h-6V15.5h6v1.2H139.1z"/>
        <path d="M149.1,27.1h-1.3V16.7H145v-1.2h7v1.2h-2.8V27.1z"/>
        <path d="M160.8,25.9v1.2h-8.4l6.4-10.5h-5.5v-1.2h7.7l-6.4,10.5H160.8z"/>
        <path d="M164.1,14.8l4.5,9.9l4.6-9.9l1.8,12.3h-1.3l-1.1-8.1l-4,8.6l-3.9-8.6l-1.2,8.1h-1.3L164.1,14.8z"/>
        <path d="M179.1,23.8l-1.4,3.3h-1.4l5.4-12.2l5.3,12.2h-1.4l-1.4-3.3H179.1z M181.6,18l-2,4.7h3.9L181.6,18z"/>
        <path d="M188.3,15l9.1,9.5v-9h1.3v12.2l-9.1-9.5v9h-1.3V15z"/>
        <path d="M201.5,15l9.1,9.5v-9h1.3v12.2l-9.1-9.5v9h-1.3V15z"/>
        <path d="M229.9,21.3v0.3c0,1.3-0.2,2.3-0.7,3.1c-1,1.6-2.9,2.7-4.8,2.7c-3.3,0-6-2.7-6-6c0-3.4,2.7-6.1,6.1-6.1
		c1.3,0,2.6,0.4,3.6,1.2c0.5,0.3,0.8,0.7,1.3,1.3l-1,0.9c-1.2-1.5-2.3-2.2-3.9-2.2c-2.7,0-4.8,2.2-4.8,4.8c0,2.6,2.2,4.8,4.7,4.8
		c1.5,0,2.9-0.8,3.6-2c0.3-0.5,0.4-0.9,0.5-1.6H225v-1.2H229.9z"/>
        <path d="M233.3,14.8l4.5,9.9l4.6-9.9l1.8,12.3h-1.3l-1.1-8.1l-4,8.6l-3.9-8.6l-1.2,8.1h-1.3L233.3,14.8z"/>
        <path d="M246.5,15.5h2.1c1.3,0,2,0.2,2.6,0.7c0.7,0.6,1.1,1.5,1.1,2.4c0,1-0.3,1.6-1.2,2.3c0.6,0.2,0.9,0.3,1.2,0.6
		c0.6,0.5,1,1.5,1,2.3c0,1-0.4,1.9-1.2,2.5c-0.7,0.6-1.5,0.8-2.8,0.8h-2.9V15.5z M248.8,20.6c0.9,0,1.3-0.1,1.7-0.5
		c0.4-0.4,0.6-0.9,0.6-1.5c0-0.6-0.2-1.2-0.6-1.5c-0.4-0.3-0.8-0.4-1.6-0.4h-1v3.9H248.8z M249.3,25.9c1,0,1.5-0.1,2-0.5
		c0.5-0.4,0.8-0.9,0.8-1.6c0-0.8-0.4-1.4-1-1.8c-0.5-0.3-1-0.4-2-0.4h-1.3v4.2H249.3z"/>
        <path d="M262.7,20.2v-4.8h1.3v11.7h-1.3v-5.7h-6v5.7h-1.3V15.5h1.3v4.8H262.7z"/>
        <path d="M132,42.4l2.6-7.1h1.1l-3.8,9.9l-3.8-9.9h1.1L132,42.4z"/>
        <path d="M136.7,41.9c0.1,1.2,0.8,2,1.8,2c0.8,0,1.2-0.3,1.8-1.2l0.8,0.5c-0.6,1.1-1.5,1.7-2.7,1.7c-1.7,0-2.9-1.2-2.9-3
		c0-1.8,1.1-3.1,2.8-3.1c1.7,0,2.8,1.2,2.8,3.1v0.2H136.7z M140.2,41.1c-0.2-0.9-0.9-1.5-1.7-1.5c-0.8,0-1.6,0.6-1.7,1.5H140.2z"/>
        <path d="M143.6,38.8v0.6c0.5-0.6,0.8-0.8,1.3-0.8c0.3,0,0.5,0.1,0.9,0.3l-0.5,0.9c-0.2-0.2-0.4-0.2-0.6-0.2c-0.4,0-0.8,0.2-0.9,0.5
		c-0.2,0.3-0.2,0.7-0.2,1.4v3.1h-1v-5.8H143.6z"/>
        <path d="M148,44.6h-1v-4.9h-0.5v-0.9h0.5v-2.5c0-0.7,0.1-1.2,0.4-1.5c0.3-0.4,0.8-0.6,1.4-0.6c0.3,0,0.4,0,0.7,0.1v1
		c-0.3-0.1-0.4-0.1-0.7-0.1c-0.6,0-0.8,0.3-0.8,1.3v2.2h1.5v0.9H148V44.6z"/>
        <path d="M155.7,38.8v5.8h-1v-0.8c-0.6,0.7-1.2,1-2,1c-1.6,0-2.8-1.3-2.8-3.1c0-1.8,1.2-3,2.8-3c0.8,0,1.5,0.3,2,1v-0.8H155.7z
		 M150.9,41.7c0,1.3,0.8,2.2,1.9,2.2c1.1,0,1.9-0.9,1.9-2.2c0-1.3-0.8-2.1-1.9-2.1C151.8,39.6,150.9,40.5,150.9,41.7z"/>
        <path d="M158.5,34.4v5.1c0.5-0.6,1-0.8,1.7-0.8c0.7,0,1.3,0.3,1.7,0.8c0.2,0.4,0.3,0.8,0.3,1.6v3.6h-1v-3.5c0-1.1-0.3-1.5-1.2-1.5
		c-1,0-1.5,0.6-1.5,2.1v2.9h-1V34.4H158.5z"/>
        <path d="M164.9,38.8v0.6c0.5-0.6,0.8-0.8,1.3-0.8c0.3,0,0.5,0.1,0.9,0.3l-0.5,0.9c-0.2-0.2-0.4-0.2-0.6-0.2c-0.4,0-0.8,0.2-0.9,0.5
		c-0.2,0.3-0.2,0.7-0.2,1.4v3.1h-1v-5.8H164.9z"/>
        <path d="M168.4,41.9c0.1,1.2,0.8,2,1.8,2c0.8,0,1.2-0.3,1.8-1.2l0.8,0.5c-0.6,1.1-1.5,1.7-2.7,1.7c-1.7,0-2.9-1.2-2.9-3
		c0-1.8,1.1-3.1,2.8-3.1c1.7,0,2.8,1.2,2.8,3.1v0.2H168.4z M171.9,41.1c-0.2-0.9-0.9-1.5-1.7-1.5c-0.8,0-1.6,0.6-1.7,1.5H171.9z"/>
        <path d="M175.3,38.8v0.7c0.5-0.6,1-0.8,1.7-0.8c0.7,0,1.3,0.3,1.7,0.8c0.2,0.4,0.3,0.8,0.3,1.6v3.6h-1v-3.4c0-0.6,0-0.9-0.2-1.1
		c-0.2-0.3-0.6-0.5-1-0.5c-0.5,0-1,0.3-1.2,0.7c-0.2,0.4-0.2,0.8-0.2,1.5v2.9h-1v-5.8H175.3z"/>
        <path d="M183.1,40.2c-0.2-0.4-0.4-0.6-0.8-0.6c-0.4,0-0.7,0.3-0.7,0.6c0,0.3,0.2,0.5,0.9,0.8c0.7,0.3,0.8,0.4,1.1,0.6
		c0.4,0.3,0.6,0.7,0.6,1.3c0,1.1-0.9,1.9-2,1.9c-1,0-1.7-0.5-2-1.5l0.9-0.4c0.3,0.7,0.6,0.9,1.2,0.9c0.6,0,1-0.4,1-0.9
		c0-0.5-0.2-0.6-0.9-1c-1.3-0.6-1.7-0.9-1.7-1.7c0-0.9,0.7-1.6,1.7-1.6c0.7,0,1.2,0.3,1.6,1.1L183.1,40.2z"/>
        <path d="M186.7,44.6h-1v-4.9h-0.6v-0.9h0.6v-2.1h1v2.1h1v0.9h-1V44.6z"/>
        <path d="M189.3,41.9c0.1,1.2,0.8,2,1.8,2c0.8,0,1.2-0.3,1.8-1.2l0.8,0.5c-0.6,1.1-1.5,1.7-2.7,1.7c-1.7,0-2.9-1.2-2.9-3
		c0-1.8,1.1-3.1,2.8-3.1c1.7,0,2.8,1.2,2.8,3.1v0.2H189.3z M192.8,41.1c-0.2-0.9-0.9-1.5-1.7-1.5c-0.8,0-1.6,0.6-1.7,1.5H192.8z"/>
        <path d="M199.7,40.6c-0.6-0.7-1.1-1-1.8-1c-1.2,0-2,0.9-2,2.1s0.9,2.1,2,2.1c0.7,0,1.2-0.3,1.9-1v1.3c-0.7,0.4-1.2,0.6-1.9,0.6
		c-1.7,0-3.1-1.3-3.1-3c0-1.7,1.3-3.1,3.1-3.1c0.7,0,1.2,0.2,1.8,0.5V40.6z"/>
        <path d="M202.2,34.4v5.1c0.5-0.6,1-0.8,1.7-0.8c0.7,0,1.3,0.3,1.7,0.8c0.2,0.4,0.3,0.8,0.3,1.6v3.6h-1v-3.5c0-1.1-0.3-1.5-1.2-1.5
		c-1,0-1.5,0.6-1.5,2.1v2.9h-1V34.4H202.2z"/>
        <path d="M208.6,38.8v0.7c0.5-0.6,1-0.8,1.7-0.8c0.7,0,1.3,0.3,1.7,0.8c0.2,0.4,0.3,0.8,0.3,1.6v3.6h-1v-3.4c0-0.6,0-0.9-0.2-1.1
		c-0.2-0.3-0.6-0.5-1-0.5c-0.5,0-1,0.3-1.2,0.7c-0.2,0.4-0.2,0.8-0.2,1.5v2.9h-1v-5.8H208.6z"/>
        <path d="M215.3,36.6c0,0.4-0.3,0.7-0.7,0.7s-0.7-0.3-0.7-0.7c0-0.4,0.3-0.7,0.7-0.7C215,35.9,215.3,36.2,215.3,36.6z M215.1,44.6
		h-1v-5.8h1V44.6z"/>
        <path d="M217.9,41l2.1-2.1h1.3l-2.5,2.5l3,3.3h-1.3l-2.3-2.6l-0.3,0.3v2.4h-1V34.4h1V41z"/>
</g>
    <g>
</g>
    <g>
</g>
    <g>
</g>
    <g>
</g>
    <g>
</g>
    <g>
</g>
</svg>
